# xmcd CD database file
#
# Track frame offsets:
#	150
#	16248
#	27321
#	46869
#	67917
#	81615
#	98988
#	113136
#	127434
#	143607
#	151155
#	166578
#	171201
#	187749
#	216822
#	246195
#
# Disc length: 3699 seconds
#
# Revision: 0
# Processed by: cddbd v1.5.2PL0 Copyright (c) Steve Scherf et al.
# Submitted via: CDex 1.51
#
DISCID=d00e7110
DTITLE=13 - featuring Lester Butler
DYEAR=1997
DGENRE=Blues
TTITLE0=So Low Down
TTITLE1=HNC
TTITLE2=Sweet Tooth
TTITLE3=Black Hearted Woman
TTITLE4=Close To You
TTITLE5=Smoke Stack Lightning
TTITLE6=Pray For Me
TTITLE7=So Mean To Me
TTITLE8=Way Down South
TTITLE9=Boogie Disease
TTITLE10=Plague Of Madness
TTITLE11=Down In The Alley
TTITLE12=Baby Please Don't Go
TTITLE13=I Wish You Would (live)
TTITLE14=Boogie Disease (live)
TTITLE15=So Mean To Me (live)
EXTD=YEAR: 1997
EXTT0=
EXTT1=
EXTT2=
EXTT3=
EXTT4=
EXTT5=
EXTT6=
EXTT7=
EXTT8=
EXTT9=
EXTT10=
EXTT11=
EXTT12=
EXTT13=
EXTT14=
EXTT15=
PLAYORDER=
